<svg width="23" height="28" viewBox="0 0 23 28" fill="none" xmlns="http://www.w3.org/2000/svg">
<path fill-rule="evenodd" clip-rule="evenodd" d="M11.5 0C9.08159 0 6.98524 1.65075 6.37811 3.9864C7.16424 3.57872 8.0032 3.26229 8.8807 3.05016C9.53966 2.35228 10.4695 1.91739 11.5 1.91739C12.5305 1.91739 13.4604 2.35229 14.1194 3.05017C14.9969 3.26231 15.8358 3.57874 16.6219 3.98642C16.0148 1.65076 13.9185 0 11.5 0ZM0.87006 13.8886C1.4278 8.38523 6.01967 4.20001 11.5 4.20001C16.9803 4.20001 21.5722 8.38523 22.1299 13.8886L22.7662 20.1663C22.9967 22.4412 23.112 23.5786 22.8497 24.4896C22.4373 25.9217 21.3976 27.084 20.0283 27.6439C19.1572 28 18.0245 28 15.7591 28H7.2409C4.97551 28 3.84281 28 2.97172 27.6439C1.6024 27.084 0.56271 25.9217 0.150345 24.4896C-0.111981 23.5786 0.00329405 22.4412 0.233844 20.1663L0.87006 13.8886ZM6.19357 21.5478H6.30138L6.10483 23.1351C6.06511 23.4558 6.31285 23.7391 6.63304 23.7391C6.95323 23.7391 7.20096 23.4558 7.16125 23.1351L6.96469 21.5478H16.8064C17.2061 21.5478 17.53 21.2208 17.53 20.8174C17.53 20.414 17.2061 20.0869 16.8064 20.0869H6.19357C5.79393 20.0869 5.46996 20.414 5.46996 20.8174C5.46996 21.2208 5.79393 21.5478 6.19357 21.5478ZM3.11488 15.9726C2.88853 16.1369 2.60788 15.8779 2.78637 15.6617C4.85263 13.1589 7.96978 11.5652 11.4571 11.5652C14.9443 11.5652 18.0615 13.1589 20.1278 15.6617C20.3062 15.8779 20.0256 16.1369 19.7993 15.9726C17.4531 14.2693 14.5716 13.2657 11.4571 13.2657C8.34249 13.2657 5.461 14.2693 3.11488 15.9726Z" fill="white"/>
</svg>
